<svg version="1.1" id="Layer_1" xmlns="http://www.w3.org/2000/svg" xmlns:xlink="http://www.w3.org/1999/xlink" x="0px" y="0px"
	 width="100%" viewBox="0 0 500 500" enable-background="new 0 0 500 500" xml:space="preserve">
<path fill="#FFFFFF" opacity="1.000000" stroke="none" 
	d="
M328.000000,501.000000 
	C218.666687,501.000000 109.833382,501.000000 1.000058,501.000000 
	C1.000039,334.333405 1.000039,167.666794 1.000019,1.000148 
	C167.666565,1.000099 334.333130,1.000099 500.999756,1.000049 
	C500.999847,167.666519 500.999847,334.333038 500.999939,500.999786 
	C443.500000,501.000000 386.000000,501.000000 328.000000,501.000000 
M199.641129,329.721863 
	C201.079956,325.757446 202.518784,321.792999 204.758972,318.051544 
	C205.170395,320.148132 205.930222,322.244690 205.930237,324.341278 
	C205.930283,331.674988 217.625320,343.573883 227.030762,347.503754 
	C225.890640,344.387878 224.803741,341.417389 223.295654,337.295837 
	C227.801880,338.914703 231.070786,340.089081 234.339676,341.263458 
	C234.636612,340.847168 234.933548,340.430878 235.230469,340.014557 
	C231.168182,336.168213 226.677811,332.670288 223.176086,328.367676 
	C220.258926,324.783356 218.501999,320.254700 216.721649,316.277466 
	C217.052109,316.348450 217.382568,316.419434 218.203094,316.830872 
	C218.795731,316.850220 219.388382,316.869537 220.792984,316.916351 
	C233.896271,321.289703 246.999557,325.663055 260.370636,330.641663 
	C269.984619,336.251282 279.624664,341.816925 289.198517,347.494263 
	C292.569427,349.493225 295.644531,348.805908 298.406860,346.635315 
	C301.083099,344.532349 303.267029,341.961365 302.604095,338.135864 
	C303.671265,337.284790 305.483063,336.582520 305.687561,335.559052 
	C307.300507,327.487122 308.990784,319.393372 309.830719,311.221375 
	C310.201630,307.612732 307.573578,304.918304 303.604950,303.906250 
	C298.344025,302.564606 293.174072,300.866180 288.724792,299.095184 
	C291.896210,298.106567 295.113586,297.243805 298.230347,296.105499 
	C307.238556,292.815460 309.903595,289.510864 309.046417,280.098419 
	C307.977417,268.360046 306.000000,256.704346 305.052856,244.563370 
	C306.042389,244.259262 307.031891,243.955139 308.529236,243.725662 
	C308.698730,243.702179 308.868225,243.678711 309.575623,244.157364 
	C312.746277,250.753265 315.843597,257.385925 319.122498,263.927582 
	C320.498962,266.673706 321.314514,268.917114 319.788361,272.221527 
	C318.873505,274.202332 320.330658,277.454865 321.144196,280.000793 
	C321.770844,281.961884 323.244751,283.637512 324.013550,285.570679 
	C326.531006,291.900818 328.809204,298.326874 331.372009,304.637817 
	C332.268250,306.844818 333.723236,308.824951 334.990509,311.025787 
	C339.878967,308.215424 344.285706,305.681976 349.342834,302.774658 
	C346.105469,297.804901 343.440338,293.629578 340.688599,289.512115 
	C337.739685,285.099670 333.913940,281.064575 331.962799,276.259064 
	C330.361084,272.314209 329.510132,268.799133 324.659821,268.023407 
	C323.801300,267.886108 322.863708,266.652527 322.428619,265.710114 
	C318.947083,258.169037 315.577667,250.576248 312.749634,242.858337 
	C313.034821,242.608444 313.320007,242.358536 314.370239,242.370224 
	C327.344116,239.534653 340.320129,236.708633 353.290070,233.855209 
	C355.799225,233.303162 358.095825,231.968781 356.907745,229.162766 
	C356.194031,227.477097 354.032227,225.598190 352.261078,225.287018 
	C323.627625,220.256287 294.970612,215.350586 266.271027,210.713074 
	C260.622955,209.800415 254.667252,209.312668 249.038589,210.047440 
	C234.547363,211.939133 220.206818,214.976883 205.720062,216.913193 
	C183.809250,219.841797 161.813538,222.132904 139.891525,224.984039 
	C137.752930,225.262177 134.769943,227.168121 134.114609,229.007965 
	C132.825394,232.627319 136.263580,233.629150 139.036453,234.394760 
	C150.721191,237.620926 162.420609,240.793976 174.246124,244.814560 
	C174.579102,254.932281 174.912079,265.049988 174.374252,275.124786 
	C168.278442,273.591614 162.157883,272.149628 156.092346,270.504822 
	C145.867401,267.732056 137.056763,274.609344 136.922531,285.217590 
	C136.846848,291.198273 141.055222,293.760193 144.313354,297.138733 
	C142.808929,298.499023 141.304520,299.859314 138.613876,302.292206 
	C155.381653,304.698059 170.582123,306.879028 185.619705,309.799194 
	C185.386063,310.917786 185.085037,312.027069 184.929779,313.156464 
	C183.953842,320.256012 188.507156,328.287659 195.133408,330.723969 
	C196.200409,331.116302 197.718384,330.282074 198.996841,330.001129 
	C198.996841,330.001129 199.006760,330.035492 199.641129,329.721863 
M124.980309,414.001007 
	C125.272484,410.879242 125.564659,407.757477 126.771271,404.653870 
	C145.965225,406.611450 165.118988,409.434845 184.362350,410.328186 
	C214.934952,411.747406 245.610382,413.196320 276.162872,412.198975 
	C309.537689,411.109558 342.822144,407.251801 376.219391,405.536377 
	C376.747894,408.397034 377.276398,411.257660 378.561676,414.422516 
	C395.349823,416.737061 412.096619,416.794159 429.313232,414.104797 
	C424.854004,406.204956 420.957428,398.879517 416.624451,391.821991 
	C414.743652,388.758636 414.634369,386.393890 416.367035,383.230499 
	C420.810974,375.117279 424.868011,366.792114 428.659546,359.373810 
	C418.457550,359.373810 408.231659,359.373810 397.949341,358.392273 
	C397.949341,353.001740 397.949341,347.611206 397.949341,342.324127 
	C391.129211,342.923096 384.991333,343.462158 379.142181,343.363403 
	C380.314514,341.810913 381.557861,340.306610 382.648621,338.698792 
	C399.670929,313.607819 409.093628,285.927612 411.052704,255.665359 
	C411.152069,254.130234 412.151733,252.335388 413.289703,251.241379 
	C417.839142,246.867844 418.272675,240.923676 414.080658,236.652802 
	C410.333008,232.834671 403.982635,232.896667 400.195068,236.788315 
	C396.256165,240.835403 396.680664,246.674500 400.874268,251.061188 
	C402.053345,252.294540 403.099274,254.407944 402.965546,256.014404 
	C402.359009,263.301086 401.675018,270.618256 400.352081,277.801666 
	C395.678772,303.177734 384.547089,325.639099 368.021057,346.018738 
	C352.529510,347.493256 337.037994,348.967804 322.283478,349.865143 
	C323.186188,349.128113 324.085205,348.386505 324.992126,347.654755 
	C363.094482,316.912354 379.746674,277.010376 373.620453,228.603104 
	C365.076385,161.090515 302.191925,112.260178 234.207108,119.197639 
	C175.173340,125.221695 128.192825,169.858292 119.384537,228.510742 
	C118.877655,231.885895 117.749687,234.176102 115.187950,236.384460 
	C111.084724,239.921692 111.058372,245.895538 114.618004,249.818787 
	C118.037460,253.587555 124.409950,254.059540 128.231949,250.827164 
	C132.157776,247.507004 133.205231,241.087189 129.518753,237.439880 
	C126.480080,234.433472 126.672081,231.445572 127.215988,227.981995 
	C138.481140,156.245285 208.798523,110.340233 279.270721,128.717285 
	C349.662323,147.073318 388.822845,222.725494 363.185150,290.819244 
	C353.802765,315.738831 337.809418,335.480164 315.305298,351.000244 
	C307.497894,351.481354 299.688782,352.398560 291.883392,352.367798 
	C258.941040,352.238037 225.971649,352.549133 193.067703,351.269958 
	C170.004181,350.373322 147.030487,347.165863 123.657417,344.396729 
	C122.571541,343.013947 121.437340,341.666138 120.407028,340.243103 
	C104.087029,317.702972 93.536095,292.798706 90.810051,265.002380 
	C84.943604,205.184616 105.643623,155.966125 153.369370,119.858551 
	C194.414520,88.805275 241.163879,81.165970 291.106384,94.164398 
	C292.893341,94.629486 294.742401,94.856186 296.562500,95.193985 
	C294.815521,93.719917 292.904694,92.773994 290.885742,92.227921 
	C267.080109,85.789230 243.066452,84.469360 218.705246,88.847137 
	C112.456543,107.940315 54.415363,223.738373 102.880043,320.311188 
	C106.964943,328.450989 112.062370,336.082642 115.743774,343.708313 
	C112.021446,343.149445 108.299118,342.590576 103.999466,341.945038 
	C103.999466,348.118622 103.999466,353.749939 103.067062,359.454529 
	C93.153755,359.454529 83.240456,359.454529 73.397018,359.454529 
	C77.185287,366.861572 81.360603,375.300323 85.818306,383.587189 
	C87.311157,386.362457 87.410530,388.513794 85.731804,391.286194 
	C81.292618,398.617371 77.190422,406.152618 72.607368,414.216705 
	C90.243263,416.553558 107.204605,417.053741 124.980309,414.001007 
M235.047607,183.226807 
	C235.999710,183.278305 237.120178,183.681320 237.874557,183.320007 
	C241.007141,181.819702 244.111374,180.222153 247.067703,178.403061 
	C249.752930,176.750778 252.096497,176.676636 254.851959,178.366943 
	C258.549286,180.635010 262.491089,182.504532 267.106140,184.959015 
	C266.167297,179.069550 265.255157,174.394241 264.768066,169.675079 
	C264.615417,168.195847 265.180542,166.219254 266.153442,165.125015 
	C269.309448,161.575394 272.806946,158.329376 276.843079,154.296890 
	C273.731995,153.757584 271.542847,153.190109 269.324219,153.029297 
	C263.073334,152.576202 257.275177,151.830353 255.348129,144.229904 
	C254.614716,141.337326 252.690033,138.746796 250.958740,135.328476 
	C248.546310,140.120407 246.398193,144.119919 244.509476,148.238388 
	C243.361450,150.741760 241.949417,151.982101 238.938202,152.127335 
	C234.596893,152.336716 230.295639,153.376572 226.114288,154.040283 
	C226.079117,154.830078 225.996948,155.067444 226.075287,155.147263 
	C229.332428,158.465927 232.678543,161.701813 235.824951,165.121597 
	C236.687195,166.058746 237.538666,167.614151 237.395447,168.761017 
	C236.824615,173.331757 235.859207,177.853195 235.047607,183.226807 
M179.430801,179.812424 
	C178.358994,179.981461 177.287170,180.150513 174.409821,180.604340 
	C184.041611,185.814240 186.042999,193.007523 182.913040,202.471771 
	C190.825897,195.626465 198.243195,196.562500 206.080856,203.214813 
	C205.300278,197.570694 203.450424,193.138184 204.553345,189.635406 
	C205.639648,186.185410 209.718262,183.677612 213.497406,179.686005 
	C202.470993,180.835388 196.970825,176.010818 194.848160,166.017319 
	C193.529999,168.215302 192.603226,169.244797 192.245529,170.444061 
	C190.442932,176.487579 186.798233,179.937393 179.430801,179.812424 
M299.855713,200.444641 
	C306.600891,193.812637 312.447357,199.751724 320.236267,203.042297 
	C314.917450,192.962677 317.699188,186.063110 325.841766,180.343689 
	C315.347900,181.068497 310.035553,175.867508 307.619141,166.126862 
	C305.029999,170.832275 303.867584,175.473907 300.899170,177.636383 
	C297.861298,179.849442 293.053589,179.633041 287.219055,180.858459 
	C297.498871,185.866379 298.477814,193.291031 295.337067,202.430145 
	C297.411469,201.581772 298.297180,201.219543 299.855713,200.444641 
z"/>
<path fill="#3861B6" opacity="1.000000" stroke="none" 
	d="
M321.546448,350.442322 
	C337.037994,348.967804 352.529510,347.493256 368.860352,345.998840 
	C372.750885,345.319733 375.802185,344.660492 378.853455,344.001221 
	C384.991333,343.462158 391.129211,342.923096 397.949341,342.324127 
	C397.949341,347.611206 397.949341,353.001740 397.990479,359.323486 
	C398.018158,372.691925 398.126709,385.131805 397.856476,397.563477 
	C397.817108,399.375153 395.969116,401.147552 394.698547,402.658020 
	C388.341370,403.118805 382.243652,403.859711 376.145966,404.600647 
	C342.822144,407.251801 309.537689,411.109558 276.162872,412.198975 
	C245.610382,413.196320 214.934952,411.747406 184.362350,410.328186 
	C165.118988,409.434845 145.965225,406.611450 126.008591,404.424316 
	C122.657661,403.830261 120.079536,403.303558 117.478668,403.141296 
	C114.009544,402.924866 110.522758,402.991547 106.676163,402.817291 
	C105.541985,400.890289 104.139091,399.092590 104.110725,397.273438 
	C103.913780,384.645203 104.002441,372.012512 103.999466,359.381256 
	C103.999466,353.749939 103.999466,348.118622 103.999466,341.945038 
	C108.299118,342.590576 112.021446,343.149445 116.521301,343.853088 
	C119.538124,344.328674 121.777405,344.659515 124.016685,344.990356 
	C147.030487,347.165863 170.004181,350.373322 193.067703,351.269958 
	C225.971649,352.549133 258.941040,352.238037 291.883392,352.367798 
	C299.688782,352.398560 307.497894,351.481354 316.099304,350.970642 
	C318.444336,350.774811 319.995392,350.608551 321.546448,350.442322 
M215.606003,374.158386 
	C215.606003,379.892365 215.606003,385.626343 215.606003,391.966034 
	C218.061142,391.966034 220.214264,392.152679 222.312531,391.894165 
	C223.519989,391.745392 224.638672,390.876038 225.797333,390.331055 
	C224.772476,389.598602 223.758179,388.850677 222.719559,388.138336 
	C221.800491,387.507965 220.854309,386.917084 219.920074,386.308746 
	C220.778732,385.801514 221.628525,385.278442 222.498291,384.790985 
	C223.606293,384.170044 224.730469,383.577911 225.847672,382.973358 
	C224.784607,382.307159 223.695404,381.678619 222.666428,380.963409 
	C221.778809,380.346466 220.959747,379.630890 220.110367,378.958954 
	C220.994217,378.491394 221.880234,377.627106 222.761520,377.631897 
	C225.243866,377.645355 227.155167,377.490295 225.839081,373.720032 
	C222.222626,373.720032 218.590576,373.720032 214.260208,373.423462 
	C211.661865,374.645874 209.063507,375.868286 206.330078,377.154236 
	C203.023422,372.520050 203.023422,372.520050 200.432739,373.018188 
	C201.634232,378.309998 202.709091,383.652954 204.152283,388.894470 
	C204.446167,389.961761 206.125977,390.647430 206.251633,390.751465 
	C209.030762,385.465027 211.356705,381.079437 213.638092,376.670807 
	C214.142578,375.695862 214.489502,374.639404 215.606003,374.158386 
M282.675171,390.956268 
	C284.308716,390.651794 286.514923,390.907745 287.466309,389.935608 
	C290.108734,387.235504 292.943146,387.078308 296.032074,389.462128 
	C297.139191,390.316437 299.293915,389.813202 301.787079,390.122925 
	C309.328583,390.841217 314.313141,388.719940 314.805115,383.647858 
	C315.089539,380.715210 314.144348,376.892609 312.295502,374.698181 
	C309.263184,371.099060 304.757385,371.475281 301.002045,372.928619 
	C301.002045,378.967987 301.002045,384.542450 300.512848,389.471832 
	C298.584473,385.417206 296.813446,381.276031 294.652893,377.349121 
	C293.744690,375.698395 292.013031,374.500671 290.655731,373.097015 
	C289.498840,374.716278 288.088257,376.213257 287.236877,377.979797 
	C285.351196,381.892426 283.746429,385.940430 282.006531,389.234161 
	C280.870331,388.790283 279.690582,387.883789 278.605804,387.985962 
	C274.759979,388.348114 271.596283,387.285400 271.322968,383.200806 
	C271.045471,379.053925 274.052887,377.714508 277.946075,377.694031 
	C279.339508,377.686707 280.727570,376.658478 283.308258,375.614960 
	C275.456299,372.371094 270.132599,373.931793 267.678711,378.990265 
	C265.491699,383.498657 267.200958,389.288635 272.150787,390.942780 
	C275.069366,391.918121 278.687012,390.801666 282.675171,390.956268 
M180.135971,387.136353 
	C180.421890,382.706573 180.905457,378.275238 180.871231,373.847931 
	C180.861206,372.549377 179.381058,371.262207 178.574692,369.969818 
	C178.149704,370.255341 177.724701,370.540863 177.299698,370.826385 
	C176.788559,373.739136 176.277435,376.651886 175.755081,379.628571 
	C171.672745,376.665466 173.243454,369.005859 165.819458,369.096100 
	C165.130219,375.324982 164.500534,381.015656 163.820892,387.157898 
	C171.113113,386.704193 166.979446,380.243530 169.681412,377.818207 
	C173.227386,381.777527 172.422150,390.097626 181.735260,388.872314 
	C182.803741,388.652100 184.150650,388.769012 184.893997,388.155090 
	C188.748611,384.971649 190.729416,385.135406 193.827087,388.704437 
	C194.631393,389.631165 196.339066,389.773895 198.529114,390.625702 
	C196.624847,384.219635 195.172104,378.976379 193.442612,373.826019 
	C193.111374,372.839600 191.719635,371.641907 190.764343,371.593903 
	C189.830444,371.546997 188.435455,372.634308 187.924316,373.588654 
	C185.507874,378.100403 183.325012,382.737213 180.135971,387.136353 
M346.215179,368.882233 
	C345.020874,368.602234 342.921051,367.837280 342.771393,368.116730 
	C341.144806,371.153931 339.823975,374.354889 338.448547,377.446655 
	C334.911407,376.045685 336.471039,367.335571 328.914886,370.266235 
	C329.265869,376.329712 329.589539,381.921478 329.939423,387.965973 
	C336.810883,387.455658 332.110016,381.778473 334.491699,379.447876 
	C336.057373,381.989441 337.602234,384.497223 339.984009,388.363586 
	C341.403534,383.661163 342.352081,380.518860 343.492889,376.739746 
	C344.067932,379.064575 344.219604,380.791382 344.935181,382.239563 
	C345.577820,383.540253 346.840027,384.534821 347.828949,385.664398 
	C348.198151,384.265381 349.000397,382.819916 348.856171,381.476013 
	C348.405426,377.275177 347.597229,373.112732 347.634460,368.984253 
	C351.121887,372.637451 355.493805,375.655701 355.548676,381.605011 
	C355.557220,382.532501 357.660828,383.440643 358.345734,383.994110 
	C359.816315,377.151276 361.088226,371.232880 362.384460,365.201477 
	C357.746033,363.507477 358.220856,369.207001 355.781189,370.954987 
	C352.919434,369.610077 351.212524,363.375854 346.215179,368.882233 
M228.385208,382.618927 
	C228.385208,385.677887 228.385208,388.736847 228.385208,391.800659 
	C233.866943,392.477112 239.095551,392.839813 241.480621,387.584106 
	C242.652664,385.001404 242.568314,380.914490 241.312912,378.364838 
	C238.930939,373.527161 233.959808,373.554016 229.149429,374.245422 
	C228.991074,374.820221 228.783859,375.275726 228.750916,375.743500 
	C228.611740,377.720795 228.524429,379.701752 228.385208,382.618927 
M251.566360,384.997345 
	C250.677505,387.271729 249.788666,389.546112 248.899826,391.820526 
	C252.343918,391.475159 254.991272,389.272461 257.711548,389.178406 
	C260.403168,389.085327 263.168427,391.120544 267.142517,392.722504 
	C264.547791,386.361328 262.636505,381.432709 260.488586,376.609467 
	C260.045319,375.614075 258.573303,374.257599 257.836151,374.401611 
	C256.690857,374.625427 255.404999,375.804596 254.828278,376.915863 
	C253.614731,379.254181 252.822876,381.811371 251.566360,384.997345 
M153.119888,380.796417 
	C153.119888,376.405060 153.119888,372.013733 153.119888,366.185791 
	C151.550095,367.606995 149.859344,368.409943 149.500320,369.610962 
	C148.699997,372.288422 148.479065,375.155487 148.178070,377.962067 
	C147.671600,382.684479 149.772873,385.398712 154.238480,385.992401 
	C158.899231,386.612030 161.203217,384.915802 162.186554,379.966309 
	C162.736374,377.198822 163.368439,374.398743 163.419098,371.603455 
	C163.441559,370.363617 162.117004,369.099365 161.403900,367.846191 
	C160.880722,368.056702 160.357544,368.267181 159.834366,368.477661 
	C159.265396,371.870972 158.672302,375.260437 158.135162,378.658752 
	C157.716721,381.306091 156.558380,382.669220 153.119888,380.796417 
M321.668549,370.407623 
	C319.902344,370.691254 318.136108,370.974884 315.872345,371.338440 
	C316.539642,377.297852 317.187439,383.082764 317.875305,389.225677 
	C321.637787,388.738281 324.706573,388.340759 327.775391,387.943207 
	C327.938263,387.389832 328.101135,386.836426 328.264008,386.283020 
	C326.999054,385.786652 325.716217,385.330658 324.474640,384.781403 
	C323.445984,384.326324 322.465973,383.761200 321.464417,383.244843 
	C322.362640,382.537231 323.186768,381.687988 324.182587,381.166962 
	C324.974182,380.752838 325.975739,380.740021 326.884094,380.549042 
	C327.021027,379.984619 327.157990,379.420197 327.294922,378.855804 
	C325.356964,378.252014 323.419037,377.648224 320.979492,376.888123 
	C319.566498,372.218506 324.907990,375.105896 326.299133,373.049866 
	C326.904358,369.884460 324.837769,369.918427 321.668549,370.407623 
M139.734909,383.778534 
	C143.096100,384.130310 145.239670,382.605377 145.873718,379.358093 
	C146.690430,375.175201 147.247818,370.941681 147.916916,366.729950 
	C147.507950,366.369904 147.098984,366.009827 146.690018,365.649750 
	C145.578690,366.599792 143.878204,367.351807 143.478577,368.540985 
	C142.644363,371.023407 142.698441,373.793884 141.977646,376.329498 
	C141.647537,377.490784 140.488159,378.566742 139.447662,379.331421 
	C138.496796,380.030273 137.199005,380.257080 136.054092,380.691895 
	C137.027252,381.651611 138.000427,382.611328 139.734909,383.778534 
z"/>
<path fill="#5085CC" opacity="1.000000" stroke="none" 
	d="
M308.021423,243.651016 
	C307.031891,243.955139 306.042389,244.259262 304.447876,244.781189 
	C302.284210,245.324921 300.725555,245.650833 298.907440,245.693115 
	C291.189362,246.591217 283.704590,247.632690 276.283325,249.015244 
	C272.693420,249.684021 269.222778,250.993271 265.330322,251.999664 
	C262.310455,252.323486 259.658417,252.660187 256.569031,252.973495 
	C246.376160,254.289520 236.620697,255.628937 226.476288,256.916565 
	C223.619247,256.610779 221.151169,256.356720 218.683090,256.102692 
	C218.904099,257.529053 219.175339,257.835724 219.458313,257.846954 
	C224.924210,258.063751 229.426620,261.104187 231.150955,265.520752 
	C231.947556,267.561096 227.779938,271.550415 225.834061,274.637787 
	C225.574005,275.050385 225.101303,275.322998 224.797729,275.715118 
	C222.892944,278.175598 221.008179,280.651550 219.116806,283.122375 
	C219.362152,283.524353 219.607483,283.926331 219.852829,284.328278 
	C230.388062,276.806213 241.040421,270.496796 254.034653,280.320923 
	C250.658524,281.587463 247.969269,282.596344 244.655838,283.839355 
	C246.453384,285.382019 247.733398,286.480560 248.841721,287.431732 
	C242.666412,286.945587 236.539749,285.748901 230.528503,286.176147 
	C223.481232,286.677002 217.009537,289.421631 212.775024,296.062622 
	C212.340012,296.429504 212.159348,296.720856 211.989380,297.005707 
	C212.000061,296.999207 212.013657,296.978180 211.695251,297.117981 
	C209.270309,297.459473 207.163773,297.661224 205.034088,297.466095 
	C206.484497,293.543823 208.020996,290.042358 209.376282,286.472076 
	C209.634598,285.791595 209.176956,284.839294 209.030380,283.781860 
	C209.011124,283.551331 208.980728,283.089661 208.992279,282.621338 
	C208.726883,273.382812 209.542755,264.831909 214.345276,256.978149 
	C214.959366,256.522217 215.275742,256.109436 215.592117,255.696686 
	C215.073486,255.461029 214.554855,255.225388 214.022537,254.990967 
	C214.008850,254.992218 213.999207,254.966492 213.854065,254.744186 
	C213.136734,254.663223 212.564545,254.804565 211.692017,254.924408 
	C207.298294,253.601349 203.204910,252.299759 198.891052,250.704544 
	C196.782776,249.930252 194.894958,249.449600 193.003479,248.984848 
	C192.999802,249.000763 193.022308,248.977005 192.846451,248.658356 
	C187.817932,246.939667 182.965286,245.539612 177.713516,244.105560 
	C176.247818,244.043167 175.181244,244.014801 174.114655,243.986450 
	C162.420609,240.793976 150.721191,237.620926 139.036453,234.394760 
	C136.263580,233.629150 132.825394,232.627319 134.114609,229.007965 
	C134.769943,227.168121 137.752930,225.262177 139.891525,224.984039 
	C161.813538,222.132904 183.809250,219.841797 205.720062,216.913193 
	C220.206818,214.976883 234.547363,211.939133 249.038589,210.047440 
	C254.667252,209.312668 260.622955,209.800415 266.271027,210.713074 
	C294.970612,215.350586 323.627625,220.256287 352.261078,225.287018 
	C354.032227,225.598190 356.194031,227.477097 356.907745,229.162766 
	C358.095825,231.968781 355.799225,233.303162 353.290070,233.855209 
	C340.320129,236.708633 327.344116,239.534653 313.551331,242.225128 
	C312.442291,242.075577 312.152191,242.071121 311.592041,241.842316 
	C310.141937,239.069916 309.213440,236.355820 307.684235,234.038055 
	C306.812195,232.716339 305.005951,231.278793 303.542419,231.190857 
	C285.719177,230.119873 267.881470,229.290115 250.028076,228.281052 
	C250.008636,228.164352 250.013733,227.927780 249.955490,227.587006 
	C249.151169,226.875320 248.405106,226.504395 247.280273,226.068268 
	C241.714767,224.329834 236.010849,225.293045 235.806396,228.377762 
	C235.684662,230.214188 238.516632,232.246384 240.279236,234.429245 
	C242.033585,234.145004 243.529404,233.622101 245.366028,232.984543 
	C247.465988,231.896820 249.225159,230.923752 251.265289,230.214294 
	C266.917786,231.650253 282.274445,233.195419 297.668274,233.808701 
	C303.699249,234.048965 307.001495,235.975189 308.072266,242.080566 
	C308.039764,242.813202 308.030609,243.232117 308.021423,243.651016 
M337.786560,231.011826 
	C339.202332,231.011826 340.618103,231.011826 342.033875,231.011826 
	C341.916565,230.453354 341.799255,229.894897 341.681915,229.336426 
	C340.117615,229.887283 338.553314,230.438141 336.272705,230.983017 
	C335.031433,230.846893 333.790192,230.710770 332.548920,230.574661 
	C332.577820,231.033859 332.606689,231.493057 332.635590,231.952240 
	C334.092529,231.638168 335.549438,231.324081 337.786560,231.011826 
M218.794586,273.957581 
	C220.185181,272.961151 221.575775,271.964722 222.966370,270.968262 
	C222.626038,270.569641 222.285721,270.170990 221.945389,269.772339 
	C220.536652,271.088074 219.127914,272.403778 217.319153,273.979614 
	C217.065369,274.182159 216.865112,274.428253 216.078568,275.008453 
	C215.083481,277.804565 214.088409,280.600708 213.093338,283.396820 
	C213.526993,283.531036 213.960648,283.665222 214.394302,283.799438 
	C215.312408,280.911255 216.230530,278.023102 217.563004,274.899902 
	C217.822769,274.701630 218.013626,274.450928 218.794586,273.957581 
M285.194885,239.965485 
	C283.360718,239.710876 281.526581,239.456284 279.692413,239.201675 
	C279.696350,239.811783 279.700287,240.421875 279.704224,241.031982 
	C281.811707,240.697037 283.919220,240.362091 286.692169,240.015671 
	C287.499359,240.015671 288.306549,240.015671 289.113739,240.015671 
	C288.964386,239.516632 288.815063,239.017609 288.665710,238.518570 
	C287.767822,239.002686 286.869934,239.486786 285.194885,239.965485 
M211.749893,247.832001 
	C216.084305,248.661041 220.418701,249.490082 224.753113,250.319122 
	C224.823456,249.877441 224.893784,249.435745 224.964127,248.994049 
	C218.560333,247.645874 212.156525,246.297699 205.752731,244.949524 
	C205.661591,245.353714 205.570465,245.757904 205.479340,246.162094 
	C207.317673,246.618881 209.156006,247.075668 211.749893,247.832001 
M142.242554,227.914825 
	C141.350922,227.853561 140.459290,227.792297 139.567657,227.731033 
	C139.528854,228.024200 139.490051,228.317368 139.451263,228.610519 
	C145.743988,229.774658 152.036713,230.938782 158.329453,232.102921 
	C158.431305,231.602692 158.533173,231.102463 158.635025,230.602234 
	C153.431274,229.715607 148.227539,228.828979 142.242554,227.914825 
M172.779480,234.740295 
	C168.894928,233.692795 165.010376,232.645294 161.125824,231.597794 
	C161.035278,232.011520 160.944733,232.425262 160.854172,232.838989 
	C167.296631,234.639832 173.739075,236.440689 180.181519,238.241531 
	C180.300507,237.849625 180.419495,237.457718 180.538498,237.065796 
	C178.212875,236.343887 175.887268,235.621979 172.779480,234.740295 
M266.005646,243.510941 
	C269.886383,242.816269 273.767120,242.121597 277.647858,241.426926 
	C277.573181,241.042648 277.498535,240.658371 277.423859,240.274094 
	C271.539185,241.227112 265.654510,242.180130 259.769836,243.133163 
	C259.812286,243.472687 259.854767,243.812225 259.897217,244.151749 
	C261.663849,244.030670 263.430450,243.909592 266.005646,243.510941 
M202.016998,245.007675 
	C202.336487,244.952805 202.661407,244.917892 202.972672,244.832886 
	C203.091751,244.800369 203.179550,244.653290 203.281616,244.558426 
	C199.545929,243.164993 195.810257,241.771561 192.074570,240.378128 
	C191.901459,240.894455 191.728348,241.410767 191.555237,241.927094 
	C194.800125,242.927246 198.044998,243.927399 202.016998,245.007675 
M300.240265,235.975128 
	C299.308258,236.216599 298.376282,236.458069 297.444275,236.699554 
	C297.514771,237.096771 297.585266,237.494003 297.655792,237.891235 
	C299.060150,237.709229 300.464539,237.527237 301.868896,237.345215 
	C301.561401,236.889359 301.253876,236.433517 300.240265,235.975128 
M329.466858,232.968384 
	C329.617828,232.901749 329.799591,232.865616 329.907715,232.756531 
	C329.968048,232.695587 329.929504,232.408447 329.895844,232.400925 
	C328.269623,232.037201 326.639069,231.692871 325.009033,231.346375 
	C324.980621,231.900314 324.952209,232.454239 324.923798,233.008179 
	C326.218689,233.008179 327.513611,233.008179 329.466858,232.968384 
M315.376801,235.016495 
	C316.237183,234.933838 317.097565,234.851166 317.957947,234.768494 
	C317.956482,234.574753 317.955017,234.381012 317.953583,234.187256 
	C316.183014,233.859940 314.412445,233.532608 312.641907,233.205276 
	C312.557373,233.524918 312.472839,233.844559 312.388275,234.164200 
	C313.139954,234.448135 313.891602,234.732071 315.376801,235.016495 
M232.436127,247.934296 
	C231.492935,247.810043 230.549744,247.685791 229.606537,247.561539 
	C229.575073,247.949738 229.543610,248.337936 229.512146,248.726135 
	C230.971146,248.726135 232.430130,248.726135 233.889130,248.726135 
	C233.780823,248.515076 233.705688,248.273727 233.551331,248.104706 
	C233.463348,248.008331 233.246094,248.029999 232.436127,247.934296 
M295.107269,238.646439 
	C293.976898,238.170258 292.846527,237.694092 291.716187,237.217911 
	C291.636841,237.657959 291.557495,238.098007 291.478149,238.538055 
	C292.507050,238.677490 293.535950,238.816925 295.107269,238.646439 
M347.428680,228.935806 
	C346.484802,228.808411 345.540924,228.681000 344.597046,228.553589 
	C344.557098,228.944748 344.517120,229.335922 344.477173,229.727081 
	C345.944336,229.727081 347.411530,229.727081 348.878693,229.727081 
	C348.771606,229.515778 348.698029,229.274033 348.544495,229.104965 
	C348.456909,229.008560 348.238861,229.030655 347.428680,228.935806 
M184.975037,238.218689 
	C184.191406,238.173080 183.407776,238.127457 182.624146,238.081848 
	C182.651550,238.479004 182.678955,238.876144 182.706360,239.273300 
	C183.620682,239.054886 184.535004,238.836472 184.975037,238.218689 
M250.464493,244.698227 
	C251.276413,245.153900 252.088333,245.609573 252.900253,246.065231 
	C253.054337,245.677124 253.208420,245.289001 253.362488,244.900894 
	C252.542496,244.685013 251.722504,244.469131 250.464493,244.698227 
M320.497894,233.596207 
	C321.228973,233.527893 321.960083,233.459579 322.691162,233.391266 
	C322.640839,233.107971 322.590485,232.824677 322.540131,232.541382 
	C321.779938,232.738113 321.019714,232.934845 320.497894,233.596207 
M225.401443,268.105988 
	C225.006958,268.516663 224.612457,268.927338 224.217957,269.338013 
	C224.614578,269.445190 225.272827,269.744720 225.360840,269.625031 
	C225.679855,269.191162 225.807541,268.616669 225.401443,268.105988 
M246.152924,245.664917 
	C245.904922,245.890976 245.656906,246.117050 245.408920,246.343140 
	C245.932526,246.498276 246.456131,246.653412 246.979752,246.808533 
	C246.860504,246.495911 246.741272,246.183289 246.152924,245.664917 
M188.474274,239.602600 
	C188.181168,239.874878 187.888062,240.147156 187.594955,240.419449 
	C187.700104,240.522614 187.886185,240.724579 187.898529,240.714478 
	C188.193283,240.472977 188.469391,240.208755 188.474274,239.602600 
M241.740784,246.935165 
	C241.390854,246.960602 241.040939,246.986053 240.691025,247.011520 
	C240.764481,247.256897 240.837936,247.502274 240.911392,247.747635 
	C241.167175,247.626053 241.422958,247.504456 241.740784,246.935165 
M236.756287,246.467850 
	C237.154663,246.598114 237.548264,246.749878 237.955475,246.840424 
	C238.036163,246.858368 238.169098,246.641388 238.277939,246.532761 
	C237.879517,246.402878 237.481110,246.272995 236.756287,246.467850 
M255.586380,244.439514 
	C256.148590,244.519485 256.710815,244.599442 257.273041,244.679428 
	C256.851715,244.478882 256.430389,244.278336 255.586380,244.439514 
z"/>
<path fill="#4879C4" opacity="1.000000" stroke="none" 
	d="
M213.029358,295.987091 
	C217.009537,289.421631 223.481232,286.677002 230.528503,286.176147 
	C236.539749,285.748901 242.666412,286.945587 248.841721,287.431732 
	C247.733398,286.480560 246.453384,285.382019 244.655838,283.839355 
	C247.969269,282.596344 250.658524,281.587463 254.034653,280.320923 
	C241.040421,270.496796 230.388062,276.806213 219.852829,284.328278 
	C219.607483,283.926331 219.362152,283.524353 219.116806,283.122375 
	C221.008179,280.651550 222.892944,278.175598 224.797729,275.715118 
	C225.101303,275.322998 225.574005,275.050385 225.834061,274.637787 
	C227.779938,271.550415 231.947556,267.561096 231.150955,265.520752 
	C229.426620,261.104187 224.924210,258.063751 219.458313,257.846954 
	C219.175339,257.835724 218.904099,257.529053 218.683090,256.102692 
	C221.151169,256.356720 223.619247,256.610779 226.746826,257.245789 
	C230.966080,257.452301 234.586716,257.629700 238.072327,257.026703 
	C244.425934,255.927551 250.699478,254.365707 257.006409,252.996887 
	C259.658417,252.660187 262.310455,252.323486 265.784546,252.019196 
	C269.030945,251.723495 271.478119,251.512634 273.875488,251.046097 
	C282.315155,249.403732 290.737793,247.673569 299.166870,245.976746 
	C300.725555,245.650833 302.284210,245.324921 304.128845,245.005997 
	C306.000000,256.704346 307.977417,268.360046 309.046417,280.098419 
	C309.903595,289.510864 307.238556,292.815460 298.230347,296.105499 
	C295.113586,297.243805 291.896210,298.106567 288.009460,299.211548 
	C285.822693,299.233124 284.311737,299.322174 282.885956,299.015381 
	C266.524750,295.494537 250.158554,291.992340 233.838837,288.286377 
	C230.297668,287.482208 227.432236,287.764709 225.933182,291.258362 
	C223.420395,297.114624 221.219406,303.104675 218.657318,308.717468 
	C218.735352,303.753662 219.043259,299.110748 219.351181,294.467834 
	C215.792542,301.463562 216.545822,308.629578 218.006622,315.990662 
	C217.900620,316.152313 217.713028,316.490417 217.713028,316.490417 
	C217.382568,316.419434 217.052109,316.348450 216.156799,315.955353 
	C214.789505,309.438812 213.987061,303.244385 213.146744,296.784119 
	C213.082382,296.341217 213.055862,296.164154 213.029358,295.987091 
M245.127075,268.070374 
	C244.844894,265.269989 244.562729,262.469574 244.280563,259.669189 
	C243.716965,259.742188 243.153351,259.815155 242.589752,259.888153 
	C243.089630,264.136414 243.589493,268.384705 244.089371,272.632996 
	C244.548141,272.581940 245.006897,272.530853 245.465668,272.479797 
	C245.358292,271.284637 245.250916,270.089508 245.127075,268.070374 
z"/>
<path fill="#FABE21" opacity="1.000000" stroke="none" 
	d="
M321.914978,350.153717 
	C319.995392,350.608551 318.444336,350.774811 316.553223,350.889954 
	C337.809418,335.480164 353.802765,315.738831 363.185150,290.819244 
	C388.822845,222.725494 349.662323,147.073318 279.270721,128.717285 
	C208.798523,110.340233 138.481140,156.245285 127.215988,227.981995 
	C126.672081,231.445572 126.480080,234.433472 129.518753,237.439880 
	C133.205231,241.087189 132.157776,247.507004 128.231949,250.827164 
	C124.409950,254.059540 118.037460,253.587555 114.618004,249.818787 
	C111.058372,245.895538 111.084724,239.921692 115.187950,236.384460 
	C117.749687,234.176102 118.877655,231.885895 119.384537,228.510742 
	C128.192825,169.858292 175.173340,125.221695 234.207108,119.197639 
	C302.191925,112.260178 365.076385,161.090515 373.620453,228.603104 
	C379.746674,277.010376 363.094482,316.912354 324.992126,347.654755 
	C324.085205,348.386505 323.186188,349.128113 321.914978,350.153717 
z"/>
<path fill="#EFE4B7" opacity="1.000000" stroke="none" 
	d="
M218.887207,309.038391 
	C221.219406,303.104675 223.420395,297.114624 225.933182,291.258362 
	C227.432236,287.764709 230.297668,287.482208 233.838837,288.286377 
	C250.158554,291.992340 266.524750,295.494537 282.885956,299.015381 
	C284.311737,299.322174 285.822693,299.233124 287.629578,299.324524 
	C293.174072,300.866180 298.344025,302.564606 303.604950,303.906250 
	C307.573578,304.918304 310.201630,307.612732 309.830719,311.221375 
	C308.990784,319.393372 307.300507,327.487122 305.687561,335.559052 
	C305.483063,336.582520 303.671265,337.284790 301.992920,338.415588 
	C300.220764,339.128143 299.004089,340.037628 297.908569,339.909729 
	C293.596588,339.406281 289.217529,338.952484 285.056763,337.788879 
	C276.671875,335.444000 268.413452,332.646942 260.102844,330.036438 
	C246.999557,325.663055 233.896271,321.289703 220.388977,316.677979 
	C219.984970,316.439575 219.847244,316.010376 219.868362,315.617157 
	C219.555374,313.162079 219.221283,311.100250 218.887207,309.038391 
M304.712311,329.932098 
	C305.010773,329.202698 305.309235,328.473267 305.607697,327.743835 
	C305.239960,327.610077 304.872192,327.476318 304.504425,327.342560 
	C304.301941,328.192413 304.099426,329.042236 303.422913,329.971741 
	C303.161713,330.122528 302.900513,330.273285 302.639313,330.424042 
	C303.111481,330.308563 303.583618,330.193115 304.712311,329.932098 
M299.015320,326.175903 
	C299.242310,324.317810 299.469299,322.459717 299.696259,320.601624 
	C299.258484,320.555756 298.820709,320.509888 298.382935,320.464020 
	C298.171906,323.121063 297.960907,325.778107 297.749878,328.435150 
	C297.987915,328.488281 298.225922,328.541412 298.463928,328.594543 
	C298.645233,328.031189 298.826508,327.467834 299.015320,326.175903 
M305.412689,322.605560 
	C304.862427,322.873108 304.312134,323.140686 303.761841,323.408234 
	C303.873779,323.628296 303.985687,323.848328 304.097595,324.068390 
	C304.635834,323.719055 305.174072,323.369720 305.412689,322.605560 
M299.223785,331.184937 
	C299.402710,331.125366 299.581635,331.065796 299.760559,331.006226 
	C299.579712,330.948364 299.398865,330.890503 299.223785,331.184937 
z"/>
<path fill="#EFE5B8" opacity="1.000000" stroke="none" 
	d="
M208.980728,283.089661 
	C208.980728,283.089661 209.011124,283.551331 208.755585,283.978088 
	C206.166962,288.906555 203.833862,293.408264 201.248596,298.114929 
	C196.336472,300.908173 191.676529,303.496490 186.707642,306.186249 
	C182.259354,305.481476 178.089493,304.805359 173.986740,303.843048 
	C164.274323,301.564911 154.593796,299.150818 144.900360,296.791718 
	C141.055222,293.760193 136.846848,291.198273 136.922531,285.217590 
	C137.056763,274.609344 145.867401,267.732056 156.092346,270.504822 
	C162.157883,272.149628 168.278442,273.591614 175.072632,275.364319 
	C186.840912,278.099121 197.910828,280.594391 208.980728,283.089661 
z"/>
<path fill="#22315C" opacity="1.000000" stroke="none" 
	d="
M394.958038,402.938110 
	C395.969116,401.147552 397.817108,399.375153 397.856476,397.563477 
	C398.126709,385.131805 398.018158,372.691925 398.018677,359.814240 
	C408.231659,359.373810 418.457550,359.373810 428.659546,359.373810 
	C424.868011,366.792114 420.810974,375.117279 416.367035,383.230499 
	C414.634369,386.393890 414.743652,388.758636 416.624451,391.821991 
	C420.957428,398.879517 424.854004,406.204956 429.313232,414.104797 
	C412.096619,416.794159 395.349823,416.737061 378.366882,413.966003 
	C383.767365,409.985718 389.362701,406.461914 394.958038,402.938110 
z"/>
<path fill="#22315C" opacity="1.000000" stroke="none" 
	d="
M103.533264,359.417908 
	C104.002441,372.012512 103.913780,384.645203 104.110725,397.273438 
	C104.139091,399.092590 105.541985,400.890289 106.964386,402.997803 
	C113.142715,406.906677 118.665428,410.515656 124.188141,414.124664 
	C107.204605,417.053741 90.243263,416.553558 72.607368,414.216705 
	C77.190422,406.152618 81.292618,398.617371 85.731804,391.286194 
	C87.410530,388.513794 87.311157,386.362457 85.818306,383.587189 
	C81.360603,375.300323 77.185287,366.861572 73.397018,359.454529 
	C83.240456,359.454529 93.153755,359.454529 103.533264,359.417908 
z"/>
<path fill="#1458B3" opacity="1.000000" stroke="none" 
	d="
M123.837051,344.693542 
	C121.777405,344.659515 119.538124,344.328674 116.994118,343.974121 
	C112.062370,336.082642 106.964943,328.450989 102.880043,320.311188 
	C54.415363,223.738373 112.456543,107.940315 218.705246,88.847137 
	C243.066452,84.469360 267.080109,85.789230 290.885742,92.227921 
	C292.904694,92.773994 294.815521,93.719917 296.562500,95.193985 
	C294.742401,94.856186 292.893341,94.629486 291.106384,94.164398 
	C241.163879,81.165970 194.414520,88.805275 153.369370,119.858551 
	C105.643623,155.966125 84.943604,205.184616 90.810051,265.002380 
	C93.536095,292.798706 104.087029,317.702972 120.407028,340.243103 
	C121.437340,341.666138 122.571541,343.013947 123.837051,344.693542 
z"/>
<path fill="#044DAE" opacity="1.000000" stroke="none" 
	d="
M235.043747,182.809845 
	C235.859207,177.853195 236.824615,173.331757 237.395447,168.761017 
	C237.538666,167.614151 236.687195,166.058746 235.824951,165.121597 
	C232.678543,161.701813 229.332428,158.465927 226.075287,155.147263 
	C225.996948,155.067444 226.079117,154.830078 226.114288,154.040283 
	C230.295639,153.376572 234.596893,152.336716 238.938202,152.127335 
	C241.949417,151.982101 243.361450,150.741760 244.509476,148.238388 
	C246.398193,144.119919 248.546310,140.120407 250.958740,135.328476 
	C252.690033,138.746796 254.614716,141.337326 255.348129,144.229904 
	C257.275177,151.830353 263.073334,152.576202 269.324219,153.029297 
	C271.542847,153.190109 273.731995,153.757584 276.843079,154.296890 
	C272.806946,158.329376 269.309448,161.575394 266.153442,165.125015 
	C265.180542,166.219254 264.615417,168.195847 264.768066,169.675079 
	C265.255157,174.394241 266.167297,179.069550 267.106140,184.959015 
	C262.491089,182.504532 258.549286,180.635010 254.851959,178.366943 
	C252.096497,176.676636 249.752930,176.750778 247.067703,178.403061 
	C244.111374,180.222153 241.007141,181.819702 237.874557,183.320007 
	C237.120178,183.681320 235.999710,183.278305 235.043747,182.809845 
z"/>
<path fill="#074FAF" opacity="1.000000" stroke="none" 
	d="
M378.997803,343.682312 
	C375.802185,344.660492 372.750885,345.319733 369.278961,345.970032 
	C384.547089,325.639099 395.678772,303.177734 400.352081,277.801666 
	C401.675018,270.618256 402.359009,263.301086 402.965546,256.014404 
	C403.099274,254.407944 402.053345,252.294540 400.874268,251.061188 
	C396.680664,246.674500 396.256165,240.835403 400.195068,236.788315 
	C403.982635,232.896667 410.333008,232.834671 414.080658,236.652802 
	C418.272675,240.923676 417.839142,246.867844 413.289703,251.241379 
	C412.151733,252.335388 411.152069,254.130234 411.052704,255.665359 
	C409.093628,285.927612 399.670929,313.607819 382.648621,338.698792 
	C381.557861,340.306610 380.314514,341.810913 378.997803,343.682312 
z"/>
<path fill="#3660B5" opacity="1.000000" stroke="none" 
	d="
M208.992279,282.621338 
	C197.910828,280.594391 186.840912,278.099121 175.508026,275.385803 
	C174.912079,265.049988 174.579102,254.932281 174.180389,244.400513 
	C175.181244,244.014801 176.247818,244.043167 177.747375,244.455658 
	C183.127655,246.218872 188.074982,247.597946 193.022308,248.977020 
	C193.022308,248.977005 192.999802,249.000763 193.184052,249.300735 
	C195.282700,250.066528 197.197128,250.532349 199.111542,250.998169 
	C203.204910,252.299759 207.298294,253.601349 212.026352,254.938309 
	C213.107101,254.971298 213.553146,254.968887 213.999207,254.966492 
	C213.999207,254.966492 214.008850,254.992218 214.016510,255.329559 
	C214.031952,256.118378 214.039764,256.569855 214.047562,257.021332 
	C209.542755,264.831909 208.726883,273.382812 208.992279,282.621338 
z"/>
<path fill="#F4BA22" opacity="1.000000" stroke="none" 
	d="
M250.047501,228.397766 
	C267.881470,229.290115 285.719177,230.119873 303.542419,231.190857 
	C305.005951,231.278793 306.812195,232.716339 307.684235,234.038055 
	C309.213440,236.355820 310.141937,239.069916 311.629028,242.089081 
	C311.936035,242.560165 312.173920,242.999283 312.173920,242.999283 
	C315.577667,250.576248 318.947083,258.169037 322.428619,265.710114 
	C322.863708,266.652527 323.801300,267.886108 324.659821,268.023407 
	C329.510132,268.799133 330.361084,272.314209 331.962799,276.259064 
	C333.913940,281.064575 337.739685,285.099670 340.688599,289.512115 
	C343.440338,293.629578 346.105469,297.804901 349.342834,302.774658 
	C344.285706,305.681976 339.878967,308.215424 334.990509,311.025787 
	C333.723236,308.824951 332.268250,306.844818 331.372009,304.637817 
	C328.809204,298.326874 326.531006,291.900818 324.013550,285.570679 
	C323.244751,283.637512 321.770844,281.961884 321.144196,280.000793 
	C320.330658,277.454865 318.873505,274.202332 319.788361,272.221527 
	C321.314514,268.917114 320.498962,266.673706 319.122498,263.927582 
	C315.843597,257.385925 312.746277,250.753265 309.263885,243.633286 
	C308.666626,242.661743 308.381104,242.214279 308.095612,241.766815 
	C307.001495,235.975189 303.699249,234.048965 297.668274,233.808701 
	C282.274445,233.195419 266.917786,231.650253 251.188812,229.999283 
	C250.570084,229.146347 250.308792,228.772064 250.047501,228.397766 
M328.874268,289.670013 
	C330.261322,292.768341 331.648376,295.866699 333.035431,298.965027 
	C333.429779,298.771515 333.824127,298.578003 334.218475,298.384491 
	C332.229889,293.651306 330.241333,288.918121 328.252777,284.184906 
	C327.921326,284.303253 327.589874,284.421570 327.258423,284.539886 
	C327.712433,286.015289 328.166412,287.490692 328.874268,289.670013 
M334.188141,301.990387 
	C334.580383,302.175476 334.972626,302.360565 335.364868,302.545654 
	C335.067566,301.753815 334.770233,300.961945 334.472931,300.170105 
	C334.313507,300.562347 334.154053,300.954590 334.188141,301.990387 
z"/>
<path fill="#044DAE" opacity="1.000000" stroke="none" 
	d="
M179.805786,179.656662 
	C186.798233,179.937393 190.442932,176.487579 192.245529,170.444061 
	C192.603226,169.244797 193.529999,168.215302 194.848160,166.017319 
	C196.970825,176.010818 202.470993,180.835388 213.497406,179.686005 
	C209.718262,183.677612 205.639648,186.185410 204.553345,189.635406 
	C203.450424,193.138184 205.300278,197.570694 206.080856,203.214813 
	C198.243195,196.562500 190.825897,195.626465 182.913040,202.471771 
	C186.042999,193.007523 184.041611,185.814240 174.409821,180.604340 
	C177.287170,180.150513 178.358994,179.981461 179.805786,179.656662 
z"/>
<path fill="#044DAE" opacity="1.000000" stroke="none" 
	d="
M299.519287,200.650986 
	C298.297180,201.219543 297.411469,201.581772 295.337067,202.430145 
	C298.477814,193.291031 297.498871,185.866379 287.219055,180.858459 
	C293.053589,179.633041 297.861298,179.849442 300.899170,177.636383 
	C303.867584,175.473907 305.029999,170.832275 307.619141,166.126862 
	C310.035553,175.867508 315.347900,181.068497 325.841766,180.343689 
	C317.699188,186.063110 314.917450,192.962677 320.236267,203.042297 
	C312.447357,199.751724 306.600891,193.812637 299.519287,200.650986 
z"/>
<path fill="#5184CB" opacity="1.000000" stroke="none" 
	d="
M213.184601,297.049957 
	C213.987061,303.244385 214.789505,309.438812 215.911560,315.888794 
	C218.501999,320.254700 220.258926,324.783356 223.176086,328.367676 
	C226.677811,332.670288 231.168182,336.168213 235.230469,340.014557 
	C234.933548,340.430878 234.636612,340.847168 234.339676,341.263458 
	C231.070786,340.089081 227.801880,338.914703 223.295654,337.295837 
	C224.803741,341.417389 225.890640,344.387878 227.030762,347.503754 
	C217.625320,343.573883 205.930283,331.674988 205.930237,324.341278 
	C205.930222,322.244690 205.170395,320.148132 204.422546,317.593323 
	C204.390137,315.758362 204.694183,314.381592 205.357544,312.955170 
	C207.815781,307.596405 209.914719,302.287292 212.013641,296.978180 
	C212.013657,296.978180 212.000061,296.999207 212.289185,297.068634 
	C212.780411,297.108704 212.982498,297.079346 213.184601,297.049957 
z"/>
<path fill="#5387CC" opacity="1.000000" stroke="none" 
	d="
M204.998230,313.004822 
	C204.694183,314.381592 204.390137,315.758362 204.021851,317.481873 
	C202.518784,321.792999 201.079956,325.757446 199.326584,329.430878 
	C199.012039,321.620361 199.012039,314.100800 199.012039,306.581268 
	C194.402405,314.432495 196.259354,322.227264 199.027893,330.014862 
	C197.718384,330.282074 196.200409,331.116302 195.133408,330.723969 
	C188.507156,328.287659 183.953842,320.256012 184.929779,313.156464 
	C185.085037,312.027069 185.386063,310.917786 185.885132,309.157562 
	C186.439240,307.705566 186.727890,306.895172 187.016556,306.084808 
	C191.676529,303.496490 196.336472,300.908173 201.672485,298.139374 
	C202.911163,297.974640 203.473785,297.990356 204.141327,298.323486 
	C205.681732,299.653564 207.117218,300.666168 208.499725,301.641418 
	C207.304443,305.520447 206.151337,309.262634 204.998230,313.004822 
M200.615601,303.015411 
	C200.723236,303.550354 200.830856,304.085266 200.938492,304.620209 
	C202.058914,303.587708 203.179352,302.555176 204.299774,301.522675 
	C204.006012,301.212311 203.712250,300.901917 203.418488,300.591553 
	C202.618942,301.231384 201.819397,301.871216 200.615601,303.015411 
z"/>
<path fill="#F6BA1F" opacity="1.000000" stroke="none" 
	d="
M260.236755,330.339050 
	C268.413452,332.646942 276.671875,335.444000 285.056763,337.788879 
	C289.217529,338.952484 293.596588,339.406281 297.908569,339.909729 
	C299.004089,340.037628 300.220764,339.128143 301.594330,338.390869 
	C303.267029,341.961365 301.083099,344.532349 298.406860,346.635315 
	C295.644531,348.805908 292.569427,349.493225 289.198517,347.494263 
	C279.624664,341.816925 269.984619,336.251282 260.236755,330.339050 
z"/>
<path fill="#F5BA20" opacity="1.000000" stroke="none" 
	d="
M186.707626,306.186249 
	C186.727890,306.895172 186.439240,307.705566 185.966583,308.787964 
	C170.582123,306.879028 155.381653,304.698059 138.613876,302.292206 
	C141.304520,299.859314 142.808929,298.499023 144.606857,296.965210 
	C154.593796,299.150818 164.274323,301.564911 173.986740,303.843048 
	C178.089493,304.805359 182.259354,305.481476 186.707626,306.186249 
z"/>
<path fill="#5987C9" opacity="1.000000" stroke="none" 
	d="
M124.584229,414.062836 
	C118.665428,410.515656 113.142715,406.906677 107.331779,403.117157 
	C110.522758,402.991547 114.009544,402.924866 117.478668,403.141296 
	C120.079536,403.303558 122.657661,403.830261 125.551369,404.415222 
	C125.564659,407.757477 125.272484,410.879242 124.584229,414.062836 
z"/>
<path fill="#5988C9" opacity="1.000000" stroke="none" 
	d="
M394.698547,402.658020 
	C389.362701,406.461914 383.767365,409.985718 377.988495,413.813904 
	C377.276398,411.257660 376.747894,408.397034 376.182678,405.068512 
	C382.243652,403.859711 388.341370,403.118805 394.698547,402.658020 
z"/>
<path fill="#4879C4" opacity="1.000000" stroke="none" 
	d="
M308.072266,242.080566 
	C308.381104,242.214279 308.666626,242.661743 308.994934,243.382233 
	C308.868225,243.678711 308.698730,243.702179 308.275330,243.688339 
	C308.030609,243.232117 308.039764,242.813202 308.072266,242.080566 
z"/>
<path fill="#5184CB" opacity="1.000000" stroke="none" 
	d="
M219.847244,316.010376 
	C219.847244,316.010376 219.984970,316.439575 219.983002,316.664215 
	C219.388382,316.869537 218.795731,316.850220 217.958069,316.660645 
	C217.713028,316.490417 217.900620,316.152313 218.292755,316.044067 
	C219.072342,315.960663 219.459793,315.985504 219.847244,316.010376 
z"/>
<path fill="#4879C4" opacity="1.000000" stroke="none" 
	d="
M312.461792,242.928802 
	C312.173920,242.999283 311.936035,242.560165 311.899048,242.313416 
	C312.152191,242.071121 312.442291,242.075577 313.168793,242.094330 
	C313.320007,242.358536 313.034821,242.608444 312.461792,242.928802 
z"/>
<path fill="#F0F3F9" opacity="1.000000" stroke="none" 
	d="
M346.927551,368.935394 
	C347.597229,373.112732 348.405426,377.275177 348.856171,381.476013 
	C349.000397,382.819916 348.198151,384.265381 347.828949,385.664398 
	C346.840027,384.534821 345.577820,383.540253 344.935181,382.239563 
	C344.219604,380.791382 344.067932,379.064575 343.492889,376.739746 
	C342.352081,380.518860 341.403534,383.661163 339.984009,388.363586 
	C337.602234,384.497223 336.057373,381.989441 334.491699,379.447876 
	C332.110016,381.778473 336.810883,387.455658 329.939423,387.965973 
	C329.589539,381.921478 329.265869,376.329712 328.914886,370.266235 
	C336.471039,367.335571 334.911407,376.045685 338.448547,377.446655 
	C339.823975,374.354889 341.144806,371.153931 342.771393,368.116730 
	C342.921051,367.837280 345.020874,368.602234 346.590027,368.927185 
	C346.964844,368.972137 346.927521,368.935394 346.927551,368.935394 
z"/>
<path fill="#F3F5FB" opacity="1.000000" stroke="none" 
	d="
M180.984116,388.545532 
	C172.422150,390.097626 173.227386,381.777527 169.681412,377.818207 
	C166.979446,380.243530 171.113113,386.704193 163.820892,387.157898 
	C164.500534,381.015656 165.130219,375.324982 165.819458,369.096100 
	C173.243454,369.005859 171.672745,376.665466 175.755081,379.628571 
	C176.277435,376.651886 176.788559,373.739136 177.299698,370.826385 
	C177.724701,370.540863 178.149704,370.255341 178.574692,369.969818 
	C179.381058,371.262207 180.861206,372.549377 180.871231,373.847931 
	C180.905457,378.275238 180.421890,382.706573 180.570908,387.434204 
	C180.986603,388.002930 180.979355,388.274078 180.984116,388.545532 
z"/>
<path fill="#EEF1F9" opacity="1.000000" stroke="none" 
	d="
M228.401688,382.150146 
	C228.524429,379.701752 228.611740,377.720795 228.750916,375.743500 
	C228.783859,375.275726 228.991074,374.820221 229.149429,374.245422 
	C233.959808,373.554016 238.930939,373.527161 241.312912,378.364838 
	C242.568314,380.914490 242.652664,385.001404 241.480621,387.584106 
	C239.095551,392.839813 233.866943,392.477112 228.385208,391.800659 
	C228.385208,388.736847 228.385208,385.677887 228.401688,382.150146 
M234.998245,378.128937 
	C234.306519,378.557892 233.047501,378.949310 233.016190,379.422028 
	C232.828491,382.256409 232.923096,385.109436 232.923096,388.090637 
	C239.004974,386.560211 239.828400,383.048248 234.998245,378.128937 
z"/>
<path fill="#EEF1F9" opacity="1.000000" stroke="none" 
	d="
M282.027100,389.933258 
	C283.746429,385.940430 285.351196,381.892426 287.236877,377.979797 
	C288.088257,376.213257 289.498840,374.716278 290.655731,373.097015 
	C292.013031,374.500671 293.744690,375.698395 294.652893,377.349121 
	C296.813446,381.276031 298.584473,385.417206 300.753845,389.760986 
	C300.994873,390.050171 300.970520,389.929535 300.970520,389.929535 
	C299.293915,389.813202 297.139191,390.316437 296.032074,389.462128 
	C292.943146,387.078308 290.108734,387.235504 287.466309,389.935608 
	C286.514923,390.907745 284.308716,390.651794 282.333313,390.617493 
	C281.991425,390.278748 282.027130,389.933258 282.027100,389.933258 
z"/>
<path fill="#F4F6FB" opacity="1.000000" stroke="none" 
	d="
M301.378784,390.026245 
	C300.970520,389.929535 300.994873,390.050171 300.998474,390.083527 
	C301.002045,384.542450 301.002045,378.967987 301.002045,372.928619 
	C304.757385,371.475281 309.263184,371.099060 312.295502,374.698181 
	C314.144348,376.892609 315.089539,380.715210 314.805115,383.647858 
	C314.313141,388.719940 309.328583,390.841217 301.378784,390.026245 
M309.380127,385.093628 
	C312.240845,379.721436 310.972961,376.919861 304.858582,376.180481 
	C305.000244,378.857727 304.889465,381.522583 305.431244,384.047516 
	C305.589783,384.786469 307.604218,385.127197 309.380127,385.093628 
z"/>
<path fill="#F3F5FB" opacity="1.000000" stroke="none" 
	d="
M251.712158,384.638031 
	C252.822876,381.811371 253.614731,379.254181 254.828278,376.915863 
	C255.404999,375.804596 256.690857,374.625427 257.836151,374.401611 
	C258.573303,374.257599 260.045319,375.614075 260.488586,376.609467 
	C262.636505,381.432709 264.547791,386.361328 267.142517,392.722504 
	C263.168427,391.120544 260.403168,389.085327 257.711548,389.178406 
	C254.991272,389.272461 252.343918,391.475159 248.899826,391.820526 
	C249.788666,389.546112 250.677505,387.271729 251.712158,384.638031 
z"/>
<path fill="#F0F3F9" opacity="1.000000" stroke="none" 
	d="
M153.425171,381.101013 
	C156.558380,382.669220 157.716721,381.306091 158.135162,378.658752 
	C158.672302,375.260437 159.265396,371.870972 159.834366,368.477661 
	C160.357544,368.267181 160.880722,368.056702 161.403900,367.846191 
	C162.117004,369.099365 163.441559,370.363617 163.419098,371.603455 
	C163.368439,374.398743 162.736374,377.198822 162.186554,379.966309 
	C161.203217,384.915802 158.899231,386.612030 154.238480,385.992401 
	C149.772873,385.398712 147.671600,382.684479 148.178070,377.962067 
	C148.479065,375.155487 148.699997,372.288422 149.500320,369.610962 
	C149.859344,368.409943 151.550095,367.606995 153.119888,366.185791 
	C153.119888,372.013733 153.119888,376.405060 153.425171,381.101013 
z"/>
<path fill="#EFF2F9" opacity="1.000000" stroke="none" 
	d="
M181.359680,388.708923 
	C180.979355,388.274078 180.986603,388.002930 181.032364,387.530762 
	C183.325012,382.737213 185.507874,378.100403 187.924316,373.588654 
	C188.435455,372.634308 189.830444,371.546997 190.764343,371.593903 
	C191.719635,371.641907 193.111374,372.839600 193.442612,373.826019 
	C195.172104,378.976379 196.624847,384.219635 198.529114,390.625702 
	C196.339066,389.773895 194.631393,389.631165 193.827087,388.704437 
	C190.729416,385.135406 188.748611,384.971649 184.893997,388.155090 
	C184.150650,388.769012 182.803741,388.652100 181.359680,388.708923 
z"/>
<path fill="#EFF2F9" opacity="1.000000" stroke="none" 
	d="
M214.958511,373.720032 
	C218.590576,373.720032 222.222626,373.720032 225.839081,373.720032 
	C227.155167,377.490295 225.243866,377.645355 222.761520,377.631897 
	C221.880234,377.627106 220.994217,378.491394 220.110367,378.958954 
	C220.959747,379.630890 221.778809,380.346466 222.666428,380.963409 
	C223.695404,381.678619 224.784607,382.307159 225.847672,382.973358 
	C224.730469,383.577911 223.606293,384.170044 222.498291,384.790985 
	C221.628525,385.278442 220.778732,385.801514 219.920074,386.308777 
	C220.854309,386.917084 221.800491,387.507965 222.719559,388.138336 
	C223.758179,388.850677 224.772476,389.598602 225.797333,390.331055 
	C224.638672,390.876038 223.519989,391.745392 222.312531,391.894165 
	C220.214264,392.152679 218.061142,391.966034 215.606003,391.966034 
	C215.606003,385.626343 215.606003,379.892365 215.274170,373.912842 
	C214.942337,373.667328 214.958511,373.720032 214.958511,373.720032 
z"/>
<path fill="#F1F4FA" opacity="1.000000" stroke="none" 
	d="
M322.081421,370.348083 
	C324.837769,369.918427 326.904358,369.884460 326.299133,373.049866 
	C324.907990,375.105896 319.566498,372.218506 320.979492,376.888123 
	C323.419037,377.648224 325.356964,378.252014 327.294922,378.855804 
	C327.157990,379.420197 327.021027,379.984619 326.884094,380.549042 
	C325.975739,380.740021 324.974182,380.752838 324.182587,381.166962 
	C323.186768,381.687988 322.362640,382.537231 321.464417,383.244812 
	C322.465973,383.761200 323.445984,384.326324 324.474640,384.781403 
	C325.716217,385.330658 326.999054,385.786652 328.264008,386.283020 
	C328.101135,386.836426 327.938263,387.389832 327.775391,387.943207 
	C324.706573,388.340759 321.637787,388.738281 317.875305,389.225677 
	C317.187439,383.082764 316.539642,377.297852 315.872345,371.338440 
	C318.136108,370.974884 319.902344,370.691254 322.081421,370.348083 
z"/>
<path fill="#F5F7FB" opacity="1.000000" stroke="none" 
	d="
M282.016846,389.583710 
	C282.027130,389.933258 281.991425,390.278748 281.990845,390.452362 
	C278.687012,390.801666 275.069366,391.918121 272.150787,390.942780 
	C267.200958,389.288635 265.491699,383.498657 267.678711,378.990265 
	C270.132599,373.931793 275.456299,372.371094 283.308258,375.614960 
	C280.727570,376.658478 279.339508,377.686707 277.946075,377.694031 
	C274.052887,377.714508 271.045471,379.053925 271.322968,383.200806 
	C271.596283,387.285400 274.759979,388.348114 278.605804,387.985962 
	C279.690582,387.883789 280.870331,388.790283 282.016846,389.583710 
z"/>
<path fill="#F0F3F9" opacity="1.000000" stroke="none" 
	d="
M214.609360,373.571747 
	C214.958511,373.720032 214.942337,373.667328 214.925659,373.643921 
	C214.489502,374.639404 214.142578,375.695862 213.638092,376.670807 
	C211.356705,381.079437 209.030762,385.465027 206.251633,390.751465 
	C206.125977,390.647430 204.446167,389.961761 204.152283,388.894470 
	C202.709091,383.652954 201.634232,378.309998 200.432739,373.018188 
	C203.023422,372.520050 203.023422,372.520050 206.330078,377.154236 
	C209.063507,375.868286 211.661865,374.645874 214.609360,373.571747 
z"/>
<path fill="#F0F3F9" opacity="1.000000" stroke="none" 
	d="
M346.980774,368.992920 
	C351.212524,363.375854 352.919434,369.610077 355.781189,370.954987 
	C358.220856,369.207001 357.746033,363.507477 362.384460,365.201477 
	C361.088226,371.232880 359.816315,377.151276 358.345734,383.994110 
	C357.660828,383.440643 355.557220,382.532501 355.548676,381.605011 
	C355.493805,375.655701 351.121887,372.637451 347.281006,368.959839 
	C346.927521,368.935394 346.964844,368.972137 346.980774,368.992920 
z"/>
<path fill="#F0F3F9" opacity="1.000000" stroke="none" 
	d="
M139.354248,383.674805 
	C138.000427,382.611328 137.027252,381.651611 136.054092,380.691895 
	C137.199005,380.257080 138.496796,380.030273 139.447662,379.331421 
	C140.488159,378.566742 141.647537,377.490784 141.977646,376.329498 
	C142.698441,373.793884 142.644363,371.023407 143.478577,368.540985 
	C143.878204,367.351807 145.578690,366.599792 146.690018,365.649750 
	C147.098984,366.009827 147.507950,366.369904 147.916916,366.729950 
	C147.247818,370.941681 146.690430,375.175201 145.873718,379.358093 
	C145.239670,382.605377 143.096100,384.130310 139.354248,383.674805 
z"/>
<path fill="#EFB51D" opacity="1.000000" stroke="none" 
	d="
M250.028076,228.281067 
	C250.308792,228.772064 250.570084,229.146347 250.907852,229.735657 
	C249.225159,230.923752 247.465988,231.896820 244.990158,232.942322 
	C242.855896,233.406677 241.438309,233.798615 240.020706,234.190567 
	C238.516632,232.246384 235.684662,230.214188 235.806396,228.377762 
	C236.010849,225.293045 241.714767,224.329834 247.430389,226.345169 
	C248.644073,227.100784 249.328903,227.514282 250.013733,227.927780 
	C250.013733,227.927780 250.008636,228.164352 250.028076,228.281067 
z"/>
<path fill="#2B457E" opacity="1.000000" stroke="none" 
	d="
M298.907440,245.693100 
	C290.737793,247.673569 282.315155,249.403732 273.875488,251.046097 
	C271.478119,251.512634 269.030945,251.723495 266.152405,252.032074 
	C269.222778,250.993271 272.693420,249.684021 276.283325,249.015244 
	C283.704590,247.632690 291.189362,246.591217 298.907440,245.693100 
z"/>
<path fill="#2A437C" opacity="1.000000" stroke="none" 
	d="
M256.569031,252.973511 
	C250.699478,254.365707 244.425934,255.927551 238.072327,257.026703 
	C234.586716,257.629700 230.966080,257.452301 227.135773,257.297577 
	C236.620697,255.628937 246.376160,254.289520 256.569031,252.973511 
z"/>
<path fill="#436CB8" opacity="1.000000" stroke="none" 
	d="
M204.036407,298.006073 
	C203.473785,297.990356 202.911163,297.974640 201.924652,297.934448 
	C203.833862,293.408264 206.166962,288.906555 208.774841,284.208618 
	C209.176956,284.839294 209.634598,285.791595 209.376282,286.472076 
	C208.020996,290.042358 206.484497,293.543823 204.780151,297.512390 
	C204.378372,297.972412 204.207382,297.989258 204.036407,298.006073 
z"/>
<path fill="#304B80" opacity="1.000000" stroke="none" 
	d="
M204.141327,298.323486 
	C204.207382,297.989258 204.378372,297.972412 204.803284,297.909271 
	C207.163773,297.661224 209.270309,297.459473 211.695251,297.117981 
	C209.914719,302.287292 207.815781,307.596405 205.357544,312.955170 
	C206.151337,309.262634 207.304443,305.520447 208.499725,301.641418 
	C207.117218,300.666168 205.681732,299.653564 204.141327,298.323486 
z"/>
<path fill="#304B80" opacity="1.000000" stroke="none" 
	d="
M211.372116,247.682220 
	C209.156006,247.075668 207.317673,246.618881 205.479340,246.162094 
	C205.570465,245.757904 205.661591,245.353714 205.752731,244.949524 
	C212.156525,246.297699 218.560333,247.645874 224.964127,248.994049 
	C224.893784,249.435745 224.823456,249.877441 224.753113,250.319122 
	C220.418701,249.490082 216.084305,248.661041 211.372116,247.682220 
z"/>
<path fill="#304B80" opacity="1.000000" stroke="none" 
	d="
M142.633179,227.928589 
	C148.227539,228.828979 153.431274,229.715607 158.635025,230.602234 
	C158.533173,231.102463 158.431305,231.602692 158.329453,232.102921 
	C152.036713,230.938782 145.743988,229.774658 139.451263,228.610519 
	C139.490051,228.317368 139.528854,228.024200 139.567657,227.731033 
	C140.459290,227.792297 141.350922,227.853561 142.633179,227.928589 
z"/>
<path fill="#2E477A" opacity="1.000000" stroke="none" 
	d="
M173.170563,234.820190 
	C175.887268,235.621979 178.212875,236.343887 180.538498,237.065796 
	C180.419495,237.457718 180.300507,237.849625 180.181519,238.241531 
	C173.739075,236.440689 167.296631,234.639832 160.854172,232.838989 
	C160.944733,232.425262 161.035278,232.011520 161.125824,231.597794 
	C165.010376,232.645294 168.894928,233.692795 173.170563,234.820190 
z"/>
<path fill="#2E477A" opacity="1.000000" stroke="none" 
	d="
M265.601379,243.649719 
	C263.430450,243.909592 261.663849,244.030670 259.897217,244.151749 
	C259.854767,243.812225 259.812286,243.472687 259.769836,243.133163 
	C265.654510,242.180130 271.539185,241.227112 277.423859,240.274094 
	C277.498535,240.658371 277.573181,241.042648 277.647858,241.426926 
	C273.767120,242.121597 269.886383,242.816269 265.601379,243.649719 
z"/>
<path fill="#294179" opacity="1.000000" stroke="none" 
	d="
M192.846451,248.658371 
	C188.074982,247.597946 183.127655,246.218872 178.146484,244.489685 
	C182.965286,245.539612 187.817932,246.939667 192.846451,248.658371 
z"/>
<path fill="#304B80" opacity="1.000000" stroke="none" 
	d="
M201.653442,244.967621 
	C198.044998,243.927399 194.800125,242.927246 191.555237,241.927094 
	C191.728348,241.410767 191.901459,240.894455 192.074570,240.378128 
	C195.810257,241.771561 199.545929,243.164993 203.281616,244.558426 
	C203.179550,244.653290 203.091751,244.800369 202.972672,244.832886 
	C202.661407,244.917892 202.336487,244.952805 201.653442,244.967621 
z"/>
<path fill="#2E477A" opacity="1.000000" stroke="none" 
	d="
M217.148651,275.134918 
	C216.230530,278.023102 215.312408,280.911255 214.394302,283.799438 
	C213.960648,283.665222 213.526993,283.531036 213.093338,283.396820 
	C214.088409,280.600708 215.083481,277.804565 216.505432,274.968079 
	C216.932297,274.927673 217.148651,275.134918 217.148651,275.134918 
z"/>
<path fill="#4879C4" opacity="1.000000" stroke="none" 
	d="
M286.026703,240.027161 
	C283.919220,240.362091 281.811707,240.697037 279.704224,241.031982 
	C279.700287,240.421875 279.696350,239.811783 279.692413,239.201675 
	C281.526581,239.456284 283.360718,239.710876 285.597076,239.982330 
	C285.999268,239.999176 286.026703,240.027161 286.026703,240.027161 
z"/>
<path fill="#4879C4" opacity="1.000000" stroke="none" 
	d="
M300.593323,235.976410 
	C301.253876,236.433517 301.561401,236.889359 301.868896,237.345215 
	C300.464539,237.527237 299.060150,237.709229 297.655792,237.891235 
	C297.585266,237.494003 297.514771,237.096771 297.444275,236.699554 
	C298.376282,236.458069 299.308258,236.216599 300.593323,235.976410 
z"/>
<path fill="#2E477A" opacity="1.000000" stroke="none" 
	d="
M217.719177,273.719482 
	C219.127914,272.403778 220.536652,271.088074 221.945389,269.772339 
	C222.285721,270.170990 222.626038,270.569641 222.966370,270.968262 
	C221.575775,271.964722 220.185181,272.961151 218.361023,273.944641 
	C217.927475,273.931732 217.719162,273.719482 217.719177,273.719482 
z"/>
<path fill="#4879C4" opacity="1.000000" stroke="none" 
	d="
M329.137695,232.988281 
	C327.513611,233.008179 326.218689,233.008179 324.923798,233.008179 
	C324.952209,232.454239 324.980621,231.900314 325.009033,231.346375 
	C326.639069,231.692871 328.269623,232.037201 329.895844,232.400925 
	C329.929504,232.408447 329.968048,232.695587 329.907715,232.756531 
	C329.799591,232.865616 329.617828,232.901749 329.137695,232.988281 
z"/>
<path fill="#4879C4" opacity="1.000000" stroke="none" 
	d="
M315.010010,235.016251 
	C313.891602,234.732071 313.139954,234.448135 312.388275,234.164200 
	C312.472839,233.844559 312.557373,233.524918 312.641907,233.205276 
	C314.412445,233.532608 316.183014,233.859940 317.953583,234.187256 
	C317.955017,234.381012 317.956482,234.574753 317.957947,234.768494 
	C317.097565,234.851166 316.237183,234.933838 315.010010,235.016251 
z"/>
<path fill="#4879C4" opacity="1.000000" stroke="none" 
	d="
M336.989014,230.989014 
	C338.553314,230.438141 340.117615,229.887283 341.681915,229.336426 
	C341.799255,229.894897 341.916565,230.453354 342.033875,231.011826 
	C340.618103,231.011826 339.202332,231.011826 337.393005,231.005554 
	C336.999420,230.999298 336.989014,230.989014 336.989014,230.989014 
z"/>
<path fill="#294179" opacity="1.000000" stroke="none" 
	d="
M198.891052,250.704544 
	C197.197128,250.532349 195.282700,250.066528 193.187714,249.284821 
	C194.894958,249.449600 196.782776,249.930252 198.891052,250.704544 
z"/>
<path fill="#4879C4" opacity="1.000000" stroke="none" 
	d="
M232.761581,247.966400 
	C233.246094,248.029999 233.463348,248.008331 233.551331,248.104706 
	C233.705688,248.273727 233.780823,248.515076 233.889130,248.726135 
	C232.430130,248.726135 230.971146,248.726135 229.512146,248.726135 
	C229.543610,248.337936 229.575073,247.949738 229.606537,247.561539 
	C230.549744,247.685791 231.492935,247.810043 232.761581,247.966400 
z"/>
<path fill="#4879C4" opacity="1.000000" stroke="none" 
	d="
M294.836060,238.801407 
	C293.535950,238.816925 292.507050,238.677490 291.478149,238.538055 
	C291.557495,238.098007 291.636841,237.657959 291.716187,237.217911 
	C292.846527,237.694092 293.976898,238.170258 294.836060,238.801407 
z"/>
<path fill="#4879C4" opacity="1.000000" stroke="none" 
	d="
M347.754120,228.967606 
	C348.238861,229.030655 348.456909,229.008560 348.544495,229.104965 
	C348.698029,229.274033 348.771606,229.515778 348.878693,229.727081 
	C347.411530,229.727081 345.944336,229.727081 344.477173,229.727081 
	C344.517120,229.335922 344.557098,228.944748 344.597046,228.553589 
	C345.540924,228.681000 346.484802,228.808411 347.754120,228.967606 
z"/>
<path fill="#4879C4" opacity="1.000000" stroke="none" 
	d="
M240.279236,234.429245 
	C241.438309,233.798615 242.855896,233.406677 244.649368,233.056976 
	C243.529404,233.622101 242.033585,234.145004 240.279236,234.429245 
z"/>
<path fill="#4879C4" opacity="1.000000" stroke="none" 
	d="
M337.002899,231.004639 
	C335.549438,231.324081 334.092529,231.638168 332.635590,231.952240 
	C332.606689,231.493057 332.577820,231.033859 332.548920,230.574661 
	C333.790192,230.710770 335.031433,230.846893 336.630859,230.986023 
	C336.989014,230.989014 336.999420,230.999298 337.002899,231.004639 
z"/>
<path fill="#2E477A" opacity="1.000000" stroke="none" 
	d="
M185.212189,238.418365 
	C184.535004,238.836472 183.620682,239.054886 182.706360,239.273300 
	C182.678955,238.876144 182.651550,238.479004 182.624146,238.081848 
	C183.407776,238.127457 184.191406,238.173080 185.212189,238.418365 
z"/>
<path fill="#4879C4" opacity="1.000000" stroke="none" 
	d="
M250.683502,244.475739 
	C251.722504,244.469131 252.542496,244.685013 253.362488,244.900894 
	C253.208420,245.289001 253.054337,245.677124 252.900253,246.065231 
	C252.088333,245.609573 251.276413,245.153900 250.683502,244.475739 
z"/>
<path fill="#4879C4" opacity="1.000000" stroke="none" 
	d="
M285.985657,239.985031 
	C286.869934,239.486786 287.767822,239.002686 288.665710,238.518570 
	C288.815063,239.017609 288.964386,239.516632 289.113739,240.015671 
	C288.306549,240.015671 287.499359,240.015671 286.359436,240.021423 
	C286.026703,240.027161 285.999268,239.999176 285.985657,239.985031 
z"/>
<path fill="#4879C4" opacity="1.000000" stroke="none" 
	d="
M320.378693,233.363892 
	C321.019714,232.934845 321.779938,232.738113 322.540131,232.541382 
	C322.590485,232.824677 322.640839,233.107971 322.691162,233.391266 
	C321.960083,233.459579 321.228973,233.527893 320.378693,233.363892 
z"/>
<path fill="#2E477A" opacity="1.000000" stroke="none" 
	d="
M225.704422,268.100586 
	C225.807541,268.616669 225.679855,269.191162 225.360840,269.625031 
	C225.272827,269.744720 224.614578,269.445190 224.217957,269.338013 
	C224.612457,268.927338 225.006958,268.516663 225.704422,268.100586 
z"/>
<path fill="#4879C4" opacity="1.000000" stroke="none" 
	d="
M214.345276,256.978149 
	C214.039764,256.569855 214.031952,256.118378 214.030182,255.328323 
	C214.554855,255.225388 215.073486,255.461029 215.592117,255.696686 
	C215.275742,256.109436 214.959366,256.522217 214.345276,256.978149 
z"/>
<path fill="#4879C4" opacity="1.000000" stroke="none" 
	d="
M246.387482,245.767792 
	C246.741272,246.183289 246.860504,246.495911 246.979752,246.808533 
	C246.456131,246.653412 245.932526,246.498276 245.408905,246.343124 
	C245.656906,246.117050 245.904922,245.890976 246.387482,245.767792 
z"/>
<path fill="#4879C4" opacity="1.000000" stroke="none" 
	d="
M188.611572,239.775635 
	C188.469391,240.208755 188.193283,240.472977 187.898529,240.714478 
	C187.886185,240.724579 187.700104,240.522614 187.594940,240.419434 
	C187.888062,240.147156 188.181168,239.874878 188.611572,239.775635 
z"/>
<path fill="#4879C4" opacity="1.000000" stroke="none" 
	d="
M241.709763,247.159012 
	C241.422958,247.504456 241.167175,247.626053 240.911407,247.747650 
	C240.837936,247.502274 240.764481,247.256897 240.691010,247.011505 
	C241.040939,246.986053 241.390854,246.960602 241.709763,247.159012 
z"/>
<path fill="#4879C4" opacity="1.000000" stroke="none" 
	d="
M236.919495,246.305481 
	C237.481110,246.272995 237.879517,246.402878 238.277939,246.532761 
	C238.169098,246.641388 238.036163,246.858368 237.955475,246.840424 
	C237.548264,246.749878 237.154663,246.598114 236.919495,246.305481 
z"/>
<path fill="#2E477A" opacity="1.000000" stroke="none" 
	d="
M255.797729,244.258636 
	C256.430389,244.278336 256.851715,244.478882 257.273041,244.679413 
	C256.710815,244.599442 256.148590,244.519485 255.797729,244.258636 
z"/>
<path fill="#4879C4" opacity="1.000000" stroke="none" 
	d="
M249.955490,227.587006 
	C249.328903,227.514282 248.644073,227.100784 247.809143,226.410385 
	C248.405106,226.504395 249.151169,226.875320 249.955490,227.587006 
z"/>
<path fill="#4879C4" opacity="1.000000" stroke="none" 
	d="
M213.854065,254.744186 
	C213.553146,254.968887 213.107101,254.971298 212.326691,254.959793 
	C212.564545,254.804565 213.136734,254.663223 213.854065,254.744186 
z"/>
<path fill="#2E477A" opacity="1.000000" stroke="none" 
	d="
M216.825348,274.822815 
	C216.865112,274.428253 217.065369,274.182159 217.519165,273.849548 
	C217.719162,273.719482 217.927475,273.931732 218.031525,274.039734 
	C218.013626,274.450928 217.822769,274.701630 217.355835,275.017395 
	C217.148651,275.134918 216.932297,274.927673 216.825348,274.822815 
z"/>
<path fill="#304B80" opacity="1.000000" stroke="none" 
	d="
M213.146744,296.784119 
	C212.982498,297.079346 212.780411,297.108704 212.278503,297.075134 
	C212.159348,296.720856 212.340012,296.429504 212.775024,296.062622 
	C213.055862,296.164154 213.082382,296.341217 213.146744,296.784119 
z"/>
<path fill="#294179" opacity="1.000000" stroke="none" 
	d="
M219.868362,315.617157 
	C219.459793,315.985504 219.072342,315.960663 218.398758,315.882385 
	C216.545822,308.629578 215.792542,301.463562 219.351181,294.467834 
	C219.043259,299.110748 218.735352,303.753662 218.657318,308.717468 
	C219.221283,311.100250 219.555374,313.162079 219.868362,315.617157 
z"/>
<path fill="#2B457E" opacity="1.000000" stroke="none" 
	d="
M245.135315,268.482361 
	C245.250916,270.089508 245.358292,271.284637 245.465668,272.479797 
	C245.006897,272.530853 244.548141,272.581940 244.089371,272.632996 
	C243.589493,268.384705 243.089630,264.136414 242.589752,259.888153 
	C243.153351,259.815155 243.716965,259.742188 244.280563,259.669189 
	C244.562729,262.469574 244.844894,265.269989 245.135315,268.482361 
z"/>
<path fill="#E3DAB2" opacity="1.000000" stroke="none" 
	d="
M299.011566,326.540192 
	C298.826508,327.467834 298.645233,328.031189 298.463928,328.594543 
	C298.225922,328.541412 297.987915,328.488281 297.749878,328.435150 
	C297.960907,325.778107 298.171906,323.121063 298.382935,320.464020 
	C298.820709,320.509888 299.258484,320.555756 299.696259,320.601624 
	C299.469299,322.459717 299.242310,324.317810 299.011566,326.540192 
z"/>
<path fill="#E3DAB2" opacity="1.000000" stroke="none" 
	d="
M303.896942,329.892090 
	C304.099426,329.042236 304.301941,328.192413 304.504425,327.342560 
	C304.872192,327.476318 305.239960,327.610077 305.607697,327.743835 
	C305.309235,328.473267 305.010773,329.202698 304.345734,329.957275 
	C303.979156,329.982483 303.896942,329.892090 303.896942,329.892090 
z"/>
<path fill="#E3DAB2" opacity="1.000000" stroke="none" 
	d="
M305.562500,322.812988 
	C305.174072,323.369720 304.635834,323.719055 304.097595,324.068390 
	C303.985687,323.848328 303.873779,323.628296 303.761841,323.408234 
	C304.312134,323.140686 304.862427,322.873108 305.562500,322.812988 
z"/>
<path fill="#E3DAB2" opacity="1.000000" stroke="none" 
	d="
M299.220886,331.008789 
	C299.398865,330.890503 299.579712,330.948364 299.760559,331.006226 
	C299.581635,331.065796 299.402710,331.125366 299.220886,331.008789 
z"/>
<path fill="#E3DAB2" opacity="1.000000" stroke="none" 
	d="
M304.017456,330.030060 
	C303.583618,330.193115 303.111481,330.308563 302.639313,330.424042 
	C302.900513,330.273285 303.161713,330.122528 303.659912,329.931915 
	C303.896942,329.892090 303.979156,329.982483 304.017456,330.030060 
z"/>
<path fill="#6A5E43" opacity="1.000000" stroke="none" 
	d="
M328.747345,289.318054 
	C328.166412,287.490692 327.712433,286.015289 327.258423,284.539886 
	C327.589874,284.421570 327.921326,284.303253 328.252777,284.184906 
	C330.241333,288.918121 332.229889,293.651306 334.218475,298.384491 
	C333.824127,298.578003 333.429779,298.771515 333.035431,298.965027 
	C331.648376,295.866699 330.261322,292.768341 328.747345,289.318054 
z"/>
<path fill="#6A5E43" opacity="1.000000" stroke="none" 
	d="
M334.091370,301.668610 
	C334.154053,300.954590 334.313507,300.562347 334.472931,300.170105 
	C334.770233,300.961945 335.067566,301.753815 335.364868,302.545654 
	C334.972626,302.360565 334.580383,302.175476 334.091370,301.668610 
z"/>
<path fill="#324F85" opacity="1.000000" stroke="none" 
	d="
M199.012360,330.007996 
	C196.259354,322.227264 194.402405,314.432495 199.012039,306.581268 
	C199.012039,314.100800 199.012039,321.620361 199.009399,329.587708 
	C199.006760,330.035492 198.996841,330.001129 199.012360,330.007996 
z"/>
<path fill="#5184CB" opacity="1.000000" stroke="none" 
	d="
M200.817719,302.763214 
	C201.819397,301.871216 202.618942,301.231384 203.418488,300.591553 
	C203.712250,300.901917 204.006012,301.212311 204.299774,301.522675 
	C203.179352,302.555176 202.058914,303.587708 200.938492,304.620209 
	C200.830856,304.085266 200.723236,303.550354 200.817719,302.763214 
z"/>
<path fill="#3861B6" opacity="1.000000" stroke="none" 
	d="
M235.391052,378.286987 
	C239.828400,383.048248 239.004974,386.560211 232.923096,388.090637 
	C232.923096,385.109436 232.828491,382.256409 233.016190,379.422028 
	C233.047501,378.949310 234.306519,378.557892 235.391052,378.286987 
z"/>
<path fill="#466DBB" opacity="1.000000" stroke="none" 
	d="
M309.074066,385.372070 
	C307.604218,385.127197 305.589783,384.786469 305.431244,384.047516 
	C304.889465,381.522583 305.000244,378.857727 304.858582,376.180481 
	C310.972961,376.919861 312.240845,379.721436 309.074066,385.372070 
z"/>
</svg>